<svg class="diagram" xmlns="http://www.w3.org/2000/svg" width="1732" height="962" viewBox="0 0 1732 962" role="img" aria-labelledby="diagram-title"><style>
    :root {
      color-scheme: light;
      --ink: #312d2a;
      --muted: #5c6f82;
      --line: #d7dde4;
      --oci: #c74634;
      --teal: #2c5967;
      --page: #f6f7f8;
      --card: #ffffff;
    }
    * { box-sizing: border-box; }
    body {
      margin: 0;
      font-family: Arial, Helvetica, sans-serif;
      color: #312d2a;
      background: #f6f7f8;
      scrollbar-color: #8ea0aa #eef2f5;
      scrollbar-width: thin;
    }
    body::-webkit-scrollbar,
    .diagram-wrap::-webkit-scrollbar,
    .service-table-wrap::-webkit-scrollbar {
      width: 6px;
      height: 6px;
    }
    body::-webkit-scrollbar-track,
    .diagram-wrap::-webkit-scrollbar-track,
    .service-table-wrap::-webkit-scrollbar-track {
      background: #eef2f5;
    }
    body::-webkit-scrollbar-thumb,
    .diagram-wrap::-webkit-scrollbar-thumb,
    .service-table-wrap::-webkit-scrollbar-thumb {
      border: 1px solid #eef2f5;
      border-radius: 999px;
      background: #8ea0aa;
    }
    body::-webkit-scrollbar-thumb:hover,
    .diagram-wrap::-webkit-scrollbar-thumb:hover,
    .service-table-wrap::-webkit-scrollbar-thumb:hover {
      background: #6f7f8b;
    }
    main {
      min-width: 920px;
      padding: 28px;
    }
    header {
      margin: 0 0 18px;
    }
    body.embedded main {
      padding: 18px 28px 28px;
    }
    body.embedded main > header {
      display: none;
    }
    h1 {
      margin: 0;
      font-size: 26px;
      line-height: 1.15;
      letter-spacing: 0;
    }
    .diagram-shell {
      position: relative;
      border: 1px solid #d7dde4;
      background: #fff;
    }
    .diagram-toolbar {
      position: absolute;
      right: 12px;
      bottom: 32px;
      z-index: 8;
      display: inline-flex;
      flex-direction: column;
      gap: 3px;
      align-items: center;
      width: max-content;
      padding: 0;
      border: 0;
      background: transparent;
      box-shadow: none;
    }
    .diagram-toolbar button,
    .zoom-percent {
      width: 34px;
      height: 26px;
      border: 1px solid #c9d1d9;
      border-radius: 3px;
      background: rgba(255, 255, 255, 0.94);
      color: #312d2a;
      font: 700 11px/1 Arial, Helvetica, sans-serif;
      box-shadow: 0 2px 5px rgba(49, 45, 42, 0.10);
    }
    .diagram-toolbar button {
      cursor: pointer;
    }
    .zoom-percent {
      display: inline-flex;
      align-items: center;
      justify-content: center;
      color: #405366;
      font-size: 10px;
      letter-spacing: 0;
    }
    .diagram-toolbar button:hover {
      border-color: #2c5967;
      color: #2c5967;
    }
    .diagram-wrap {
      position: relative;
      overflow: auto;
      background: #fff;
      cursor: grab;
      max-height: calc(100vh - 150px);
      padding-bottom: 16px;
      scrollbar-color: #8ea0aa transparent;
      scrollbar-width: thin;
    }
    .diagram-wrap::-webkit-scrollbar-track {
      background: transparent;
    }
    .diagram-wrap::-webkit-scrollbar-thumb {
      border-color: transparent;
    }
    .diagram-wrap.is-panning {
      cursor: grabbing;
      user-select: none;
    }
    .diagram-stage {
      transform-origin: 0 0;
      width: max-content;
      height: max-content;
    }
    .diagram {
      display: block;
      width: auto;
      max-width: none;
      min-width: 0;
      height: auto;
      transform-origin: 0 0;
    }
    .canvas {
      fill: #ffffff;
    }
    .diagram-group rect {
      stroke-width: 1.5;
      stroke-dasharray: 0;
    }
    .diagram-group.depth-1 rect,
    .diagram-group.depth-2 rect {
      fill-opacity: 1;
    }
    .diagram-group-label rect {
      fill: rgba(255, 255, 255, 0.94);
      stroke: #d7dde4;
      stroke-width: 1;
    }
    .diagram-group-label text {
      font-size: 12px;
      font-weight: 700;
      fill: #312d2a;
    }
    .edge {
      fill: none;
      stroke: #5c6f82;
      stroke-width: 1.65;
      stroke-linecap: round;
      opacity: 0.9;
    }
    .edge-traffic { stroke: #2c5967; }
    .edge-data { stroke: #5f7f3f; }
    .edge-events { stroke: #9a6634; }
    .edge-admin { stroke: #6f5aa7; }
    .edge-security { stroke: #a24b42; }
    .edge-observability { stroke: #4f7d90; }
    .edge-service { stroke: #4f6678; }
    .edge-label {
      pointer-events: none;
    }
    .edge-label rect {
      fill: rgba(255, 255, 255, 0.95);
      stroke: #c7d0da;
      stroke-width: 1;
    }
    .edge-label text {
      fill: #5c6f82;
      font-size: 8.8px;
      font-weight: 700;
    }
    .edge-label-traffic rect { stroke: #93b6bd; fill: #f1f9fa; }
    .edge-label-data rect { stroke: #b3c99d; fill: #f6fbf1; }
    .edge-label-events rect { stroke: #d2b18e; fill: #fff8f0; }
    .edge-label-admin rect { stroke: #c0b7df; fill: #f7f5ff; }
    .edge-label-security rect { stroke: #d6aaa5; fill: #fff5f3; }
    .edge-label-observability rect { stroke: #a6c6d1; fill: #f2f9fb; }
    .edge-label-traffic text { fill: #2c5967; }
    .edge-label-data text { fill: #557537; }
    .edge-label-events text { fill: #865825; }
    .edge-label-admin text { fill: #5f4f98; }
    .edge-label-security text { fill: #8f3f37; }
    .edge-label-observability text { fill: #426f82; }
    .node-card {
      fill: #ffffff;
      stroke: #c9d1d9;
      stroke-width: 1.2;
      filter: drop-shadow(0 2px 5px rgba(49, 45, 42, 0.10));
    }
    .node-icon {
      overflow: visible;
    }
    .node-icon path,
    .node-icon polygon,
    .node-icon rect,
    .node-icon circle,
    .node-icon line,
    .node-icon polyline {
      vector-effect: non-scaling-stroke;
    }
    .node-service-name {
      fill: #312d2a;
      font-size: 11.4px;
      font-weight: 700;
    }
    .service-inventory {
      margin-top: 18px;
      padding-top: 14px;
      border-top: 1px solid #d7dde4;
    }
    .service-inventory h2 {
      margin: 0 0 8px;
      font-size: 15px;
      line-height: 1.25;
      letter-spacing: 0;
    }
    .service-table-wrap {
      overflow-x: auto;
      border: 1px solid #d7dde4;
      background: #fff;
    }
    .service-table {
      width: 100%;
      min-width: 760px;
      border-collapse: collapse;
      table-layout: fixed;
    }
    .service-table th {
      padding: 9px 12px;
      border-bottom: 1px solid #c9d1d9;
      background: #eef2f5;
      color: #405366;
      font-size: 11px;
      font-weight: 700;
      line-height: 1.25;
      text-align: left;
      text-transform: uppercase;
    }
    .service-table td {
      padding: 11px 12px;
      border-bottom: 1px solid #e5e9ee;
      vertical-align: top;
    }
    .service-table tbody tr:nth-child(even) {
      background: #f8fafb;
    }
    .service-table tbody tr:last-child td {
      border-bottom: 0;
    }
    .service-table th:nth-child(1),
    .service-table td:nth-child(1) {
      width: 24%;
    }
    .service-table th:nth-child(2),
    .service-table td:nth-child(2) {
      width: 26%;
    }
    .service-name {
      display: block;
      color: #312d2a;
      font-size: 12.8px;
      font-weight: 700;
      line-height: 1.25;
      overflow-wrap: anywhere;
    }
    .service-context {
      display: block;
      color: #5c6f82;
      font-size: 11.4px;
      line-height: 1.3;
      overflow-wrap: anywhere;
    }
    .service-role {
      margin: 0;
      color: #405366;
      font-size: 12.2px;
      line-height: 1.4;
    }
    .warnings {
      margin-top: 14px;
      border-left: 4px solid #c74634;
      background: #fff7f4;
      padding: 10px 14px;
      font-size: 13px;
    }
    .warnings ul {
      margin: 6px 0 0;
      padding-left: 18px;
    }
    @media (max-width: 980px) {
      main {
        min-width: 0;
        padding: 18px;
      }
      .diagram-wrap {
        max-height: 62vh;
      }
      .service-table {
        min-width: 680px;
      }
    }
  </style>
  <title id="diagram-title">WordPress en Oracle Kubernetes Engine</title>
  <defs>
    <marker id="arrow-traffic" viewBox="0 0 10 10" refX="8.4" refY="5" markerWidth="6" markerHeight="6" orient="auto">
      <path d="M 1.5 1.5 L 8.5 5 L 1.5 8.5 z" fill="#2c5967"/>
    </marker>
    <marker id="arrow-data" viewBox="0 0 10 10" refX="8.4" refY="5" markerWidth="6" markerHeight="6" orient="auto">
      <path d="M 1.5 1.5 L 8.5 5 L 1.5 8.5 z" fill="#5f7f3f"/>
    </marker>
    <marker id="arrow-events" viewBox="0 0 10 10" refX="8.4" refY="5" markerWidth="6" markerHeight="6" orient="auto">
      <path d="M 1.5 1.5 L 8.5 5 L 1.5 8.5 z" fill="#9a6634"/>
    </marker>
    <marker id="arrow-admin" viewBox="0 0 10 10" refX="8.4" refY="5" markerWidth="6" markerHeight="6" orient="auto">
      <path d="M 1.5 1.5 L 8.5 5 L 1.5 8.5 z" fill="#6f5aa7"/>
    </marker>
    <marker id="arrow-security" viewBox="0 0 10 10" refX="8.4" refY="5" markerWidth="6" markerHeight="6" orient="auto">
      <path d="M 1.5 1.5 L 8.5 5 L 1.5 8.5 z" fill="#a24b42"/>
    </marker>
    <marker id="arrow-observability" viewBox="0 0 10 10" refX="8.4" refY="5" markerWidth="6" markerHeight="6" orient="auto">
      <path d="M 1.5 1.5 L 8.5 5 L 1.5 8.5 z" fill="#4f7d90"/>
    </marker>
    <marker id="arrow-service" viewBox="0 0 10 10" refX="8.4" refY="5" markerWidth="6" markerHeight="6" orient="auto">
      <path d="M 1.5 1.5 L 8.5 5 L 1.5 8.5 z" fill="#4f6678"/>
    </marker>
  </defs>
  <rect class="canvas" x="0" y="0" width="1732" height="962"/>
  <g class="groups">
    <g class="diagram-group depth-0" data-group-id="oci-region"><rect x="24" y="34" width="1654" height="844" rx="8" fill="#f4f5f6" stroke="#aeb7c1"/></g><g class="diagram-group depth-1" data-group-id="platform-services"><rect x="96" y="590" width="1536" height="224" rx="8" fill="#e4e8eb" stroke="#657484"/></g><g class="diagram-group depth-2" data-group-id="public-subnet"><rect x="106" y="154" width="556" height="362" rx="8" fill="#e4e8eb" stroke="#657484"/></g><g class="diagram-group depth-2" data-group-id="worker-subnet"><rect x="746" y="154" width="556" height="362" rx="8" fill="#e4e8eb" stroke="#657484"/></g>
  </g>
  <g class="edges">
    <path class="edge edge-service" d="M 316 412 C 364.96 412, 403.04 258, 452 258" marker-end="url(#arrow-service)"/><g class="edge-label edge-label-service" transform="translate(384 335)"><rect x="-23.15" y="-11" width="46.3" height="17" rx="4"/><text text-anchor="middle" y="1">HTTP 80</text></g><path class="edge edge-service" d="M 636 258 C 684.96 258, 723.04 250, 772 250" marker-end="url(#arrow-service)"/><g class="edge-label edge-label-service" transform="translate(704 254)"><rect x="-49" y="-11" width="98" height="17" rx="4"/><text text-anchor="middle" y="1">Service LoadBalancer</text></g><path class="edge edge-service" d="M 956 250 C 1004.96 250, 1043.04 404, 1092 404" marker-end="url(#arrow-service)"/><g class="edge-label edge-label-service" transform="translate(1024 327)"><rect x="-30.5" y="-11" width="61" height="17" rx="4"/><text text-anchor="middle" y="1">mysql:3306</text></g><path class="edge edge-service" d="M 956 266 C 1004.96 266, 1043.04 702, 1092 702" marker-end="url(#arrow-service)"/><g class="edge-label edge-label-service" transform="translate(1024 484)"><rect x="-37.85" y="-11" width="75.7" height="17" rx="4"/><text text-anchor="middle" y="1">/var/www/html</text></g><path class="edge edge-service" d="M 1276 412 C 1324.96 412, 1363.04 702, 1412 702" marker-end="url(#arrow-service)"/><g class="edge-label edge-label-service" transform="translate(1344 557)"><rect x="-40.3" y="-11" width="80.6" height="17" rx="4"/><text text-anchor="middle" y="1">/var/lib/mysql</text></g><path class="edge edge-service" d="M 316 694 C 408 694, 680 266, 772 266" marker-end="url(#arrow-service)"/><g class="edge-label edge-label-service" transform="translate(544 480)"><rect x="-30.5" y="-11" width="61" height="17" rx="4"/><text text-anchor="middle" y="1">pull image</text></g><path class="edge edge-service" d="M 316 710 C 408 710, 1000 420, 1092 420" marker-end="url(#arrow-service)"/><g class="edge-label edge-label-service" transform="translate(704 565)"><rect x="-30.5" y="-11" width="61" height="17" rx="4"/><text text-anchor="middle" y="1">pull image</text></g>
  </g>
  <g class="group-labels">
    <g class="diagram-group-label depth-0" data-group-id="oci-region"><rect x="36" y="43" width="92" height="22" rx="5"/><text x="47" y="58">OCI Region</text></g><g class="diagram-group-label depth-1" data-group-id="platform-services"><rect x="108" y="599" width="113" height="22" rx="5"/><text x="119" y="614">Servicios OCI</text></g><g class="diagram-group-label depth-2" data-group-id="public-subnet"><rect x="118" y="163" width="190" height="22" rx="5"/><text x="129" y="178">Subred publica de Load Balancer</text></g><g class="diagram-group-label depth-2" data-group-id="worker-subnet"><rect x="758" y="163" width="190" height="22" rx="5"/><text x="769" y="178">Subred privada de worker nodes</text></g>
  </g>
  <g class="nodes">

    <g class="node" id="node-internet-gateway" transform="translate(132 356)">
      <rect class="node-card" width="184" height="112" rx="8"/>
      <svg class="node-icon" x="66" y="21" width="52" height="52" viewBox="0 0 39.31 42.83" preserveAspectRatio="xMidYMid meet">
        <path d="M15.55,38,17,36.59c-.3-.05-.6-.11-.9-.19l-.39-.09c-.27-.07-.53-.15-.79-.24a5,5,0,0,1-.51-.17l-.63-.25-.63-.27-.41-.2-.8-.43-.29-.18c-.31-.19-.58-.36-.83-.54l-.43-.31-.43-.32-.41-.34,0,0A15.48,15.48,0,0,1,8,31.53H8l-.36-.41-.32-.43L7,30.27c-.18-.26-.35-.52-.52-.79l-.2-.34c-.14-.24-.27-.48-.4-.73s-.16-.32-.23-.47-.19-.42-.27-.63-.18-.42-.25-.63A4,4,0,0,1,5,26.23c-.11-.32-.19-.58-.26-.85L4.66,25c-.07-.3-.14-.61-.19-.92l-.08-.5c0-.18-.06-.36-.08-.55l0-.48H.5V20.29H4.28l0-.48c0-.19.05-.37.08-.55l.08-.5c0-.31.12-.62.2-.93s.06-.28.09-.38c.07-.27.15-.53.24-.8s.11-.33.16-.5.17-.43.26-.64.17-.41.27-.62.16-.32.24-.48.25-.48.39-.72l.21-.35q.24-.39.51-.78l.31-.42c.1-.15.21-.3.32-.44L8,11.28l0,0A14.44,14.44,0,0,1,9.55,9.79h0l.4-.35.45-.33.4-.3c.26-.18.53-.35.79-.51l.34-.21.74-.4.47-.23q.31-.15.63-.27l.63-.26.45-.15.85-.25.38-.1L17,6.23,15.55,4.81l4.1-4.1,4.11,4.1L22.33,6.23l.9.19.39.1c.27.07.53.15.79.24l.51.16.63.26.63.27c.13.06.26.12.38.19l.1.05q.36.18.72.39l.29.17.84.55.44.32.42.31.41.34,0,0a14.25,14.25,0,0,1,1.51,1.5h0l.36.42c.11.14.22.29.32.44l.31.42q.27.39.51.78l.21.34c.14.24.27.49.39.73l.24.48q.15.31.27.63c.09.21.18.42.25.63s.11.31.16.47.18.56.25.83l.09.38c.08.31.14.62.2.93l.08.5a4.86,4.86,0,0,1,.07.55l0,.48h3.77v2.25H35L35,23a5,5,0,0,1-.07.54l-.08.51c-.06.31-.12.62-.2.92l-.09.39c-.07.27-.15.53-.24.79a5,5,0,0,1-.17.51c-.07.21-.16.42-.25.63s-.17.42-.27.63l-.22.44c-.14.28-.27.52-.41.76l-.21.34c-.16.27-.33.53-.51.79l-.3.41-.33.45-.35.43,0,0A15.27,15.27,0,0,1,29.76,33h0l-.4.35-.42.31-.44.32c-.26.18-.52.35-.79.51l-.33.21c-.25.14-.49.27-.74.39l-.09,0-.38.19-.63.27-.63.25-.51.17c-.26.09-.52.17-.79.24l-.39.09c-.3.08-.6.14-.9.19L23.76,38l-4.11,4.1Zm5.23-.19L22,36.65l-.14,0a5.17,5.17,0,0,1-.55.07l-.48,0Zm-2.25,0v-1l-.48,0a4.86,4.86,0,0,1-.55-.07l-.14,0ZM21.26,6.07l.55.08.14,0L20.78,5V6Zm-3.9.1.14,0,.55-.08L18.53,6V5Z" fill="#fff"/><path d="M19.65,1.41l1.51,1.51.05.05,1.84,1.84-.88.88-1-1-.93-.94V6.52l.93.07v0l.72.11.3,0c.3,0,.59.12.89.19l.37.09.77.23.49.16.61.25L26,7.9l.46.23c.24.12.47.24.7.38l.33.2c.26.16.52.32.77.5l.23.18c.2.14.4.28.59.43h0a15.25,15.25,0,0,1,2.2,2.2h0c.15.19.29.39.43.58l.18.24c.18.25.34.51.5.77s.13.21.2.33.26.46.38.7.15.31.23.46.18.4.26.61.17.4.24.61.11.33.17.49.16.51.23.77l.09.37c.07.3.13.59.19.89,0,.1,0,.2,0,.3s.08.48.11.72h0q0,.47.06.93h3.77V22H34.54q0,.47-.06.93h0c0,.24-.07.48-.11.72s0,.2,0,.3c-.06.3-.12.59-.19.89l-.09.37c-.07.26-.15.51-.23.77s-.11.32-.17.49-.16.41-.24.61-.17.41-.26.61l-.23.46-.38.7-.2.33c-.16.26-.32.51-.5.76l-.18.25c-.14.19-.28.39-.43.58h0A15.25,15.25,0,0,1,29,33h0c-.19.15-.39.29-.59.43l-.23.18c-.25.18-.51.34-.77.5l-.33.2c-.23.13-.46.26-.7.38l-.46.23-.61.26-.61.24-.49.17-.77.23-.37.09-.89.19-.3,0-.72.11v0q-.47,0-.93.06V39l.93-.93,1-1,.88.88-1.84,1.84-.68.67-.88.88-.88-.88-.67-.67L16.26,38l.88-.88,1,1L19,39V36.3q-.47,0-.93-.06v0l-.72-.11-.3,0-.89-.19-.37-.09-.77-.23-.49-.17c-.21-.07-.41-.16-.61-.24l-.61-.26-.46-.23c-.24-.12-.47-.25-.7-.38l-.33-.2c-.26-.16-.52-.32-.77-.5l-.23-.18c-.2-.14-.4-.28-.59-.43h0a15.25,15.25,0,0,1-2.2-2.2h0c-.15-.19-.29-.39-.43-.59s-.12-.15-.18-.24c-.18-.25-.34-.5-.5-.76-.07-.11-.14-.22-.2-.33s-.26-.47-.38-.7l-.23-.46c-.09-.2-.18-.41-.26-.61s-.17-.41-.25-.61-.11-.33-.16-.49-.16-.51-.23-.77l-.09-.37c-.07-.3-.13-.59-.19-.9,0-.09,0-.19,0-.29s-.08-.48-.11-.72h0c0-.31,0-.62-.07-.93H1V20.79H4.76c0-.31,0-.62.07-.93h0c0-.24.07-.48.11-.72s0-.2,0-.3c.06-.3.12-.59.19-.89l.09-.37c.07-.26.15-.52.23-.77l.16-.49c.08-.21.16-.41.25-.61s.17-.41.26-.61.15-.31.23-.46.24-.47.38-.7A3.79,3.79,0,0,1,7,13.6c.16-.25.32-.51.5-.76l.18-.24c.14-.19.28-.39.43-.58h0a15.25,15.25,0,0,1,2.2-2.2h0l.58-.43.24-.18c.25-.18.51-.34.77-.5a3.62,3.62,0,0,1,.33-.2c.23-.13.46-.26.7-.38l.46-.23L14,7.64l.61-.25.49-.16L15.82,7l.37-.09c.3-.07.59-.14.89-.19l.3,0,.72-.11v0L19,6.52V3.79l-.93.94-1,1-.88-.88L18.1,3l0-.05,1.5-1.51m0-1.41L19,.71l-1.5,1.5-.06,0L15.55,4.1l-.7.71.7.71.42.41h0l-.11,0L15.56,6l-.82.25-.05,0-.47.15-.66.26L12.92,7l-.42.21-.07,0c-.26.13-.51.26-.75.4l-.26.16-.1.06c-.27.17-.54.34-.81.53a1.09,1.09,0,0,0-.17.13l-.09.06-.16.12L9.63,9l-.85.69,0,0c-.28.26-.55.52-.81.8l0,0-.71.84-.34.45L6.82,12l-.06.09a1.09,1.09,0,0,0-.13.17c-.19.27-.36.54-.53.81l0,.09-.17.27c-.14.24-.27.49-.4.75s-.17.33-.25.49-.19.43-.28.64-.17.44-.25.66-.11.31-.16.46l0,.06c-.09.27-.17.54-.25.82,0,.1,0,.2-.07.3l0,.1c-.08.31-.15.63-.2,1l0,.21,0,.1,0,.21c0,.19-.06.37-.08.57v0H0V23H3.81v0c0,.19.05.38.08.57l0,.2L4,24l0,.2c.05.33.12.64.2,1l0,.1c0,.1,0,.2.07.3.08.28.16.55.25.82l0,0,.15.48c.09.22.17.44.26.65s.18.44.28.65l.23.45c.15.29.28.55.42.79l.16.26.06.1c.17.27.34.54.53.81l.13.18.06.08.12.16c.11.16.22.31.34.46l.7.85,0,0q.39.42.81.81l0,0,.83.7.45.34.17.12.09.07.16.12c.27.19.55.36.82.53l.09.05.26.16c.25.15.5.28.76.41l.05,0,.44.22.65.28.65.26.47.16.05,0c.27.09.54.17.82.24l.3.08.1,0h0l-.42.42-.7.71.7.71,1.84,1.84.68.67.88.88.7.71.71-.71.88-.88.68-.67,1.83-1.84.71-.71-.71-.71-.42-.42h0l.1,0,.3-.08c.28-.07.55-.15.82-.24l.51-.17.67-.27c.21-.08.43-.18.64-.28s.29-.14.43-.21l.06,0c.25-.13.51-.26.75-.41L27.9,35,28,35c.27-.17.54-.34.81-.53l.18-.13.08-.06.16-.12.46-.34.84-.69,0,0c.27-.26.54-.52.8-.8l0,0,.72-.85c.12-.15.23-.31.35-.47l.11-.15.06-.08.13-.18c.19-.27.36-.54.53-.81l0-.09.16-.26c.15-.25.28-.51.41-.76s.17-.34.24-.49.2-.43.28-.65.18-.43.26-.65.11-.32.16-.48l0-.05q.14-.39.24-.81c0-.1,0-.2.08-.3l0-.1c.08-.32.15-.63.2-.95l0-.22,0-.1,0-.2c0-.19.06-.38.08-.57v0h3.81V19.79H35.49v0c0-.2-.05-.38-.08-.57l0-.2,0-.1,0-.22c0-.32-.12-.63-.2-1l0-.11c0-.1,0-.19-.07-.29-.07-.28-.15-.55-.24-.82l0-.05c-.05-.16-.1-.31-.16-.47s-.17-.44-.26-.65-.18-.44-.28-.65-.14-.3-.22-.45c-.15-.3-.28-.55-.42-.79l-.16-.26-.06-.1c-.17-.27-.34-.54-.53-.81l-.13-.17L32.49,12l-.12-.16c-.11-.16-.22-.31-.34-.46l-.7-.86,0,0c-.26-.28-.53-.55-.8-.8l0,0L29.68,9l-.46-.34-.16-.12L29,8.52l-.18-.13c-.27-.19-.54-.36-.82-.53l-.08-.05-.27-.17c-.24-.14-.5-.27-.75-.4l-.06,0L26.39,7l-.65-.28-.65-.25-.47-.16-.05,0L23.75,6,23.45,6l-.1,0h0l.42-.41.71-.71-.71-.71L21.92,2.26l-.05,0L20.36.71,19.65,0Z" fill="#fff"/><path d="M21.21,35v1.26A15,15,0,0,0,34.5,23H33.25A13.71,13.71,0,0,1,21.21,35Z" fill="#2c5967"/><path d="M6.06,23H4.81A15,15,0,0,0,18.1,36.26V35A13.71,13.71,0,0,1,6.06,23Z" fill="#2c5967"/><path d="M33.25,19.86H34.5A15,15,0,0,0,21.21,6.57V7.82A13.73,13.73,0,0,1,33.25,19.86Z" fill="#2c5967"/><path d="M18.1,7.82V6.57A15,15,0,0,0,4.81,19.86H6.06A13.73,13.73,0,0,1,18.1,7.82Z" fill="#2c5967"/><polygon points="20.28 3.79 21.21 4.73 22.17 5.69 23.05 4.81 21.21 2.97 21.16 2.92 19.65 1.41 18.15 2.92 18.1 2.97 16.26 4.81 17.14 5.69 18.1 4.73 19.03 3.79 19.03 39.03 18.1 38.1 17.14 37.14 16.26 38.02 18.1 39.86 18.77 40.53 19.65 41.41 20.53 40.53 21.21 39.86 23.05 38.02 22.17 37.14 21.21 38.1 20.28 39.03 20.28 3.79" fill="#2c5967"/><polygon points="22.71 20.79 23.64 19.86 24.6 18.9 23.72 18.02 21.88 19.86 20.33 21.41 21.88 22.97 23.72 24.81 24.6 23.93 23.64 22.97 22.71 22.04 38.31 22.04 38.31 20.79 22.71 20.79" fill="#2c5967"/><polygon points="16.6 22.04 15.67 22.97 14.71 23.93 15.59 24.81 18.1 22.29 18.98 21.41 18.1 20.54 15.59 18.02 14.71 18.9 15.67 19.86 16.6 20.79 1 20.79 1 22.04 16.6 22.04" fill="#2c5967"/>
      </svg>
      <text class="node-service-name" text-anchor="middle" x="92" y="89"><tspan x="92" dy="0">Internet Gateway</tspan></text>
    </g>

    <g class="node" id="node-wordpress-lb" transform="translate(452 202)">
      <rect class="node-card" width="184" height="112" rx="8"/>
      <svg class="node-icon" x="66" y="21" width="52" height="52" viewBox="0 0 42.38 42" preserveAspectRatio="xMidYMid meet">
        <g>
	<g>
		<g>
			<path class="oci-load-balancer-primary-st0" d="M34.2,41.5v-2.48h3.01L23.16,24.96c-0.37,4.76-1.46,8.95-3.17,12.18c-2.1,3.56-4.22,4.29-5.63,4.29
				c-0.25,0-0.51-0.02-0.76-0.07c-4.03-0.74-6.46-6.79-7.4-12.21c-0.38-2.03-0.62-4.41-0.67-6.91H0.5v-2.48h5.03
				c0.06-2.59,0.31-5.07,0.72-7.17C7.56,5.23,10.69,0.64,14.42,0.6c2.18,0,6.08,1.59,8.18,12.23c0.24,1.35,0.41,2.75,0.53,4.2
				L37.17,2.98H34.2V0.5h7.3v7.3h-2.48V4.64L23.9,19.76h12.88l-2-1.91l1.71-1.8l5.17,4.92l-5.14,5.14l-1.75-1.75l2.12-2.13H23.95
				l15.07,15.07V34.2h2.48v7.3H34.2z" style="fill:#FFFFFF;"/>
			<path class="oci-load-balancer-primary-st0" d="M41,1v6.3h-1.48V3.44L22.79,20.17c0,0.03,0,0.06,0,0.09h15.25l-2.55-2.43l1.02-1.07l4.44,4.23l-4.43,4.43
				l-1.05-1.05l2.62-2.62H22.79c0,0.02,0,0.03,0,0.05l16.72,16.72V34.7H41V41h-6.3v-1.48h3.72l-15.7-15.7
				c-0.25,4.57-1.17,9.28-3.18,13.08l-0.02,0.04c-1.88,3.19-3.75,3.99-5.17,3.99c-0.24,0-0.47-0.02-0.68-0.06
				c-3.78-0.69-6.13-6.79-6.99-11.81c-0.42-2.2-0.64-4.75-0.68-7.32H1v-1.48h5.02c0.04-2.67,0.28-5.31,0.72-7.58
				C8,5.57,10.95,1.13,14.42,1.1c0.01,0,0.02,0,0.04,0c2,0,5.62,1.55,7.64,11.82l0,0.02c0.27,1.56,0.49,3.33,0.6,5.21L38.38,2.48
				H34.7V1H41 M42,0h-1h-6.3h-1v1v1.48v1h1h1.26L23.53,15.92c-0.11-1.09-0.26-2.14-0.44-3.15C21.02,2.29,17.26,0.1,14.46,0.1
				c-4.09,0.04-7.33,4.68-8.71,12.41c-0.39,1.99-0.63,4.31-0.71,6.75H1H0v1v1.48v1h1h4.04c0.08,2.34,0.31,4.58,0.67,6.51
				c0.96,5.57,3.51,11.82,7.8,12.6c0.28,0.05,0.57,0.08,0.86,0.08c1.54,0,3.84-0.78,6.03-4.48l0-0.01l0.03-0.05
				c1.62-3.06,2.69-6.94,3.14-11.33l12.45,12.45H34.7h-1v1V41v1h1H41h1v-1v-6.3v-1h-1h-1.48h-1v1v1.4L25.16,22.74h10.53l-0.92,0.92
				l-0.71,0.71l0.71,0.71l1.05,1.05l0.71,0.71l0.71-0.71l4.43-4.43l0.72-0.72l-0.74-0.71l-4.44-4.23l-0.72-0.69l-0.69,0.72
				l-1.02,1.07l-0.69,0.72l0.72,0.69l0.74,0.7H25.11L38.52,5.85V7.3v1h1H41h1v-1V1V0L42,0z" style="fill:#FFFFFF;"/>
		</g>
		<g>
			<path class="oci-load-balancer-primary-st1" d="M14.46,2.95c-0.01,0-0.01,0-0.02,0c-1.97,0.02-4.66,3.18-5.88,10.06l0,0.02c-0.42,2.17-0.65,4.68-0.69,7.23
				h8.88l-2.74-2.61l1.02-1.07l4.62,4.41l-4.43,4.42l-1.05-1.05l2.62-2.62H7.86c0.04,2.46,0.25,4.89,0.65,6.99
				c0.96,5.57,3.27,9.9,5.51,10.31c0.11,0.02,0.23,0.03,0.34,0.03c1.43,0,2.71-1.63,3.56-3.06c3.29-6.25,3.56-15.92,2.36-22.75
				C18.78,5.66,16.29,2.95,14.46,2.95z" style="fill:none;"/>
			<path class="oci-load-balancer-primary-st2" d="M41,7.3V1h-6.3v1.48h3.67L22.71,18.15c-0.11-1.88-0.32-3.65-0.6-5.21l0-0.02C20.08,2.65,16.46,1.1,14.46,1.1
				c-0.01,0-0.02,0-0.04,0C10.95,1.13,8,5.57,6.74,12.68c-0.44,2.27-0.68,4.91-0.72,7.58H1v1.48h5.01c0.04,2.58,0.26,5.12,0.68,7.32
				c0.86,5.01,3.21,11.11,6.99,11.81c0.21,0.04,0.44,0.06,0.68,0.06c1.41,0,3.28-0.8,5.17-3.99l0.02-0.04
				c2.01-3.8,2.93-8.51,3.18-13.08l15.7,15.7H34.7V41H41v-6.3h-1.48v3.81L22.79,21.79c0-0.02,0-0.03,0-0.05H38.1l-2.62,2.62
				l1.05,1.05l4.43-4.43l-4.44-4.23l-1.02,1.07l2.55,2.43H22.79c0-0.03,0-0.06,0-0.09L39.52,3.44V7.3H41z M17.92,36.02
				c-0.85,1.43-2.13,3.06-3.56,3.06c-0.11,0-0.23-0.01-0.34-0.03c-2.23-0.41-4.55-4.74-5.51-10.31c-0.4-2.11-0.61-4.54-0.65-6.99
				h8.94l-2.62,2.62l1.05,1.05l4.43-4.42l-4.62-4.41l-1.02,1.07l2.74,2.61H7.86c0.04-2.55,0.27-5.06,0.69-7.23l0-0.02
				c1.22-6.89,3.91-10.04,5.88-10.06c0.01,0,0.01,0,0.02,0c1.83,0,4.32,2.71,5.83,10.32C21.48,20.09,21.21,29.77,17.92,36.02z" style="fill:#2C5967;"/>
		</g>
	</g>
</g>
      </svg>
      <text class="node-service-name" text-anchor="middle" x="92" y="89"><tspan x="92" dy="0">Load Balancer - Primary</tspan></text>
    </g>

    <g class="node" id="node-wordpress-pod" transform="translate(772 202)">
      <rect class="node-card" width="184" height="112" rx="8"/>
      <svg class="node-icon" x="66" y="21" width="52" height="52" viewBox="0 0 42 42" preserveAspectRatio="xMidYMid meet">
        <g>
	<g>
		<path class="oci-container-engine-for-kubernetes-st0" d="M2.67,41.5c-1.19,0-2.17-0.97-2.17-2.17V2.67c0-1.19,0.97-2.17,2.17-2.17h36.67c1.19,0,2.17,0.97,2.17,2.17
			v36.67c0,1.19-0.97,2.17-2.17,2.17H2.67z" style="fill:#FFFFFF;"/>
		<path class="oci-container-engine-for-kubernetes-st0" d="M39.33,1C40.25,1,41,1.75,41,2.67v36.67c0,0.92-0.75,1.67-1.67,1.67H2.67C1.75,41,1,40.25,1,39.33V2.67
			C1,1.75,1.75,1,2.67,1H39.33 M39.33,0H2.67C1.2,0,0,1.2,0,2.67v36.67C0,40.8,1.2,42,2.67,42h36.67C40.8,42,42,40.8,42,39.33V2.67
			C42,1.2,40.8,0,39.33,0L39.33,0z" style="fill:#FFFFFF;"/>
	</g>
	<g>
		<path class="oci-container-engine-for-kubernetes-st1" d="M39.33,1H2.67C1.75,1,1,1.75,1,2.67v36.67C1,40.25,1.75,41,2.67,41h36.67c0.92,0,1.67-0.75,1.67-1.67V2.67
			C41,1.75,40.25,1,39.33,1z M39.52,39.33c0,0.1-0.08,0.19-0.19,0.19H2.67c-0.1,0-0.19-0.08-0.19-0.19V2.67
			c0-0.1,0.08-0.19,0.19-0.19h36.67c0.1,0,0.19,0.08,0.19,0.19V39.33z" style="fill:#2C5967;"/>
		<path class="oci-container-engine-for-kubernetes-st1" d="M20.35,5.44h-8.89v8.89h8.89V5.44z M18.87,12.85h-5.93V6.93h5.93V12.85z" style="fill:#2C5967;"/>
		<path class="oci-container-engine-for-kubernetes-st1" d="M30.35,5.44h-8.89v8.89h8.89V5.44z M28.87,12.85h-5.93V6.93h5.93V12.85z" style="fill:#2C5967;"/>
		<polygon class="oci-container-engine-for-kubernetes-st1" points="18.04,16.93 23.96,16.93 23.96,19.27 25.44,19.64 25.44,15.44 16.56,15.44 16.56,19.64 18.04,19.27
					" style="fill:#2C5967;"/>
		<polygon class="oci-container-engine-for-kubernetes-st1" points="28.04,16.93 33.96,16.93 33.96,21.75 35.44,22.12 35.44,15.44 26.56,15.44 26.56,19.92 28.04,20.28
					" style="fill:#2C5967;"/>
		<polygon class="oci-container-engine-for-kubernetes-st1" points="8.04,16.93 13.96,16.93 13.96,20.28 15.44,19.92 15.44,15.44 6.56,15.44 6.56,22.12 8.04,21.75 		" style="fill:#2C5967;"/>
		<path class="oci-container-engine-for-kubernetes-st1" d="M21,19.68L5.18,23.61l0.18,0.72c1.78,7.2,8.21,12.23,15.64,12.23s13.86-5.03,15.64-12.23l0.18-0.72L21,19.68z
			 M20.26,21.39v13.66C14.08,34.75,8.78,30.6,6.99,24.68L20.26,21.39z M21,35.63L21,35.63L21,35.63z M21.74,35.05V21.39l13.27,3.29
			C33.22,30.6,27.92,34.75,21.74,35.05z" style="fill:#2C5967;"/>
	</g>
</g>
      </svg>
      <text class="node-service-name" text-anchor="middle" x="92" y="89"><tspan x="92" dy="0">Container Engine for</tspan><tspan x="92" dy="12">Kubernetes</tspan></text>
    </g>

    <g class="node" id="node-mysql-pod" transform="translate(1092 356)">
      <rect class="node-card" width="184" height="112" rx="8"/>
      <svg class="node-icon" x="66" y="21" width="52" height="52" viewBox="0 0 42 42" preserveAspectRatio="xMidYMid meet">
        <g>
	<g>
		<path class="oci-container-engine-for-kubernetes-st0" d="M2.67,41.5c-1.19,0-2.17-0.97-2.17-2.17V2.67c0-1.19,0.97-2.17,2.17-2.17h36.67c1.19,0,2.17,0.97,2.17,2.17
			v36.67c0,1.19-0.97,2.17-2.17,2.17H2.67z" style="fill:#FFFFFF;"/>
		<path class="oci-container-engine-for-kubernetes-st0" d="M39.33,1C40.25,1,41,1.75,41,2.67v36.67c0,0.92-0.75,1.67-1.67,1.67H2.67C1.75,41,1,40.25,1,39.33V2.67
			C1,1.75,1.75,1,2.67,1H39.33 M39.33,0H2.67C1.2,0,0,1.2,0,2.67v36.67C0,40.8,1.2,42,2.67,42h36.67C40.8,42,42,40.8,42,39.33V2.67
			C42,1.2,40.8,0,39.33,0L39.33,0z" style="fill:#FFFFFF;"/>
	</g>
	<g>
		<path class="oci-container-engine-for-kubernetes-st1" d="M39.33,1H2.67C1.75,1,1,1.75,1,2.67v36.67C1,40.25,1.75,41,2.67,41h36.67c0.92,0,1.67-0.75,1.67-1.67V2.67
			C41,1.75,40.25,1,39.33,1z M39.52,39.33c0,0.1-0.08,0.19-0.19,0.19H2.67c-0.1,0-0.19-0.08-0.19-0.19V2.67
			c0-0.1,0.08-0.19,0.19-0.19h36.67c0.1,0,0.19,0.08,0.19,0.19V39.33z" style="fill:#2C5967;"/>
		<path class="oci-container-engine-for-kubernetes-st1" d="M20.35,5.44h-8.89v8.89h8.89V5.44z M18.87,12.85h-5.93V6.93h5.93V12.85z" style="fill:#2C5967;"/>
		<path class="oci-container-engine-for-kubernetes-st1" d="M30.35,5.44h-8.89v8.89h8.89V5.44z M28.87,12.85h-5.93V6.93h5.93V12.85z" style="fill:#2C5967;"/>
		<polygon class="oci-container-engine-for-kubernetes-st1" points="18.04,16.93 23.96,16.93 23.96,19.27 25.44,19.64 25.44,15.44 16.56,15.44 16.56,19.64 18.04,19.27
					" style="fill:#2C5967;"/>
		<polygon class="oci-container-engine-for-kubernetes-st1" points="28.04,16.93 33.96,16.93 33.96,21.75 35.44,22.12 35.44,15.44 26.56,15.44 26.56,19.92 28.04,20.28
					" style="fill:#2C5967;"/>
		<polygon class="oci-container-engine-for-kubernetes-st1" points="8.04,16.93 13.96,16.93 13.96,20.28 15.44,19.92 15.44,15.44 6.56,15.44 6.56,22.12 8.04,21.75 		" style="fill:#2C5967;"/>
		<path class="oci-container-engine-for-kubernetes-st1" d="M21,19.68L5.18,23.61l0.18,0.72c1.78,7.2,8.21,12.23,15.64,12.23s13.86-5.03,15.64-12.23l0.18-0.72L21,19.68z
			 M20.26,21.39v13.66C14.08,34.75,8.78,30.6,6.99,24.68L20.26,21.39z M21,35.63L21,35.63L21,35.63z M21.74,35.05V21.39l13.27,3.29
			C33.22,30.6,27.92,34.75,21.74,35.05z" style="fill:#2C5967;"/>
	</g>
</g>
      </svg>
      <text class="node-service-name" text-anchor="middle" x="92" y="89"><tspan x="92" dy="0">Container Engine for</tspan><tspan x="92" dy="12">Kubernetes</tspan></text>
    </g>

    <g class="node" id="node-wordpress-volume" transform="translate(1092 646)">
      <rect class="node-card" width="184" height="112" rx="8"/>
      <svg class="node-icon" x="66" y="21" width="52" height="52" viewBox="0 0 42 42" preserveAspectRatio="xMidYMid meet">
        <g>
	<g>
		<g>
			<path class="oci-block-storage-st0" d="M2.67,41.5c-1.19,0-2.17-0.97-2.17-2.17V2.67c0-1.2,0.97-2.17,2.17-2.17h36.67c1.19,0,2.17,0.97,2.17,2.17
				v36.67c0,1.2-0.97,2.17-2.17,2.17H2.67z" style="fill:#FFFFFF;"/>
			<path class="oci-block-storage-st0" d="M39.33,1C40.25,1,41,1.75,41,2.67v0.97v0.24v35.46c0,0.92-0.75,1.67-1.67,1.67H2.67C1.75,41,1,40.25,1,39.33
				V3.87V3.64V2.67C1,1.75,1.75,1,2.67,1H39.33 M39.33,0H2.67C1.2,0,0,1.2,0,2.67v0.97v0.24v35.46C0,40.8,1.2,42,2.67,42h36.67
				C40.8,42,42,40.8,42,39.33V3.87V3.64V2.67C42,1.2,40.8,0,39.33,0L39.33,0z" style="fill:#FFFFFF;"/>
		</g>
		<g>
			<path class="oci-block-storage-st1" d="M19.85,9.46H7.4V21.7h12.45V9.46z M18.37,20.22H8.89v-9.28h9.48V20.22z" style="fill:#2C5967;"/>
			<path class="oci-block-storage-st1" d="M34.66,9.46H22.21V21.7h12.45V9.46z M33.17,20.22h-9.48v-9.28h9.48V20.22z" style="fill:#2C5967;"/>
			<path class="oci-block-storage-st1" d="M19.85,23.99H7.4v12.24h12.45V23.99z M18.37,34.75H8.89v-9.28h9.48V34.75z" style="fill:#2C5967;"/>
			<path class="oci-block-storage-st1" d="M34.66,23.99H22.21v12.24h12.45V23.99z M33.17,34.75h-9.48v-9.28h9.48V34.75z" style="fill:#2C5967;"/>
			<path class="oci-block-storage-st1" d="M1,39.33C1,40.25,1.75,41,2.67,41h36.67c0.92,0,1.67-0.75,1.67-1.67V4.99H1V39.33z M2.48,6.47h37.04v32.87
				c0,0.1-0.08,0.19-0.19,0.19H2.67c-0.1,0-0.19-0.08-0.19-0.19V6.47z" style="fill:#2C5967;"/>
			<path class="oci-block-storage-st1" d="M39.33,1H2.67C1.75,1,1,1.75,1,2.67v1.21h40V2.67C41,1.75,40.25,1,39.33,1z" style="fill:#2C5967;"/>
		</g>
	</g>
</g>
      </svg>
      <text class="node-service-name" text-anchor="middle" x="92" y="89"><tspan x="92" dy="0">Block Storage</tspan></text>
    </g>

    <g class="node" id="node-mysql-volume" transform="translate(1412 646)">
      <rect class="node-card" width="184" height="112" rx="8"/>
      <svg class="node-icon" x="66" y="21" width="52" height="52" viewBox="0 0 42 42" preserveAspectRatio="xMidYMid meet">
        <g>
	<g>
		<g>
			<path class="oci-block-storage-st0" d="M2.67,41.5c-1.19,0-2.17-0.97-2.17-2.17V2.67c0-1.2,0.97-2.17,2.17-2.17h36.67c1.19,0,2.17,0.97,2.17,2.17
				v36.67c0,1.2-0.97,2.17-2.17,2.17H2.67z" style="fill:#FFFFFF;"/>
			<path class="oci-block-storage-st0" d="M39.33,1C40.25,1,41,1.75,41,2.67v0.97v0.24v35.46c0,0.92-0.75,1.67-1.67,1.67H2.67C1.75,41,1,40.25,1,39.33
				V3.87V3.64V2.67C1,1.75,1.75,1,2.67,1H39.33 M39.33,0H2.67C1.2,0,0,1.2,0,2.67v0.97v0.24v35.46C0,40.8,1.2,42,2.67,42h36.67
				C40.8,42,42,40.8,42,39.33V3.87V3.64V2.67C42,1.2,40.8,0,39.33,0L39.33,0z" style="fill:#FFFFFF;"/>
		</g>
		<g>
			<path class="oci-block-storage-st1" d="M19.85,9.46H7.4V21.7h12.45V9.46z M18.37,20.22H8.89v-9.28h9.48V20.22z" style="fill:#2C5967;"/>
			<path class="oci-block-storage-st1" d="M34.66,9.46H22.21V21.7h12.45V9.46z M33.17,20.22h-9.48v-9.28h9.48V20.22z" style="fill:#2C5967;"/>
			<path class="oci-block-storage-st1" d="M19.85,23.99H7.4v12.24h12.45V23.99z M18.37,34.75H8.89v-9.28h9.48V34.75z" style="fill:#2C5967;"/>
			<path class="oci-block-storage-st1" d="M34.66,23.99H22.21v12.24h12.45V23.99z M33.17,34.75h-9.48v-9.28h9.48V34.75z" style="fill:#2C5967;"/>
			<path class="oci-block-storage-st1" d="M1,39.33C1,40.25,1.75,41,2.67,41h36.67c0.92,0,1.67-0.75,1.67-1.67V4.99H1V39.33z M2.48,6.47h37.04v32.87
				c0,0.1-0.08,0.19-0.19,0.19H2.67c-0.1,0-0.19-0.08-0.19-0.19V6.47z" style="fill:#2C5967;"/>
			<path class="oci-block-storage-st1" d="M39.33,1H2.67C1.75,1,1,1.75,1,2.67v1.21h40V2.67C41,1.75,40.25,1,39.33,1z" style="fill:#2C5967;"/>
		</g>
	</g>
</g>
      </svg>
      <text class="node-service-name" text-anchor="middle" x="92" y="89"><tspan x="92" dy="0">Block Storage</tspan></text>
    </g>

    <g class="node" id="node-ocir" transform="translate(132 646)">
      <rect class="node-card" width="184" height="112" rx="8"/>
      <svg class="node-icon" x="66" y="21" width="52" height="52" viewBox="0 0 42 42" preserveAspectRatio="xMidYMid meet">
        <g>
	<g>
		<path class="oci-oci-container-registry-st0" d="M2.67,41.5c-1.19,0-2.17-0.97-2.17-2.17V2.67c0-1.19,0.97-2.17,2.17-2.17h36.67c1.19,0,2.17,0.97,2.17,2.17
			v36.67c0,1.19-0.97,2.17-2.17,2.17H2.67z" style="fill:#FFFFFF;"/>
		<path class="oci-oci-container-registry-st0" d="M39.33,1C40.25,1,41,1.75,41,2.67v36.67c0,0.92-0.75,1.67-1.67,1.67H2.67C1.75,41,1,40.25,1,39.33V2.67
			C1,1.75,1.75,1,2.67,1H39.33 M39.33,0H2.67C1.2,0,0,1.2,0,2.67v36.67C0,40.8,1.2,42,2.67,42h36.67C40.8,42,42,40.8,42,39.33V2.67
			C42,1.2,40.8,0,39.33,0L39.33,0z" style="fill:#FFFFFF;"/>
	</g>
	<g>
		<path class="oci-oci-container-registry-st1" d="M39.33,41H2.67C1.75,41,1,40.25,1,39.33V2.67C1,1.75,1.75,1,2.67,1h36.67C40.25,1,41,1.75,41,2.67v36.67
			C41,40.25,40.25,41,39.33,41z M2.67,2.48c-0.1,0-0.19,0.08-0.19,0.19v36.67c0,0.1,0.08,0.19,0.19,0.19h36.67
			c0.1,0,0.19-0.08,0.19-0.19V2.67c0-0.1-0.08-0.19-0.19-0.19H2.67z" style="fill:#2C5967;"/>
	</g>
	<g>
		<g>
			<g>
				<path class="oci-oci-container-registry-st1" d="M20.35,20.44h-8.89v-8.89h8.89V20.44z M12.94,18.96h5.93v-5.93h-5.93V18.96z" style="fill:#2C5967;"/>
			</g>
		</g>
		<g>
			<g>
				<path class="oci-oci-container-registry-st1" d="M30.35,20.44h-8.89v-8.89h8.89V20.44z M22.94,18.96h5.93v-5.93h-5.93V18.96z" style="fill:#2C5967;"/>
			</g>
		</g>
		<g>
			<g>
				<path class="oci-oci-container-registry-st1" d="M25.44,30.44h-8.89v-8.89h8.89V30.44z M18.04,28.96h5.93v-5.93h-5.93V28.96z" style="fill:#2C5967;"/>
			</g>
		</g>
		<g>
			<g>
				<path class="oci-oci-container-registry-st1" d="M35.44,30.44h-8.89v-8.89h8.89V30.44z M28.04,28.96h5.93v-5.93h-5.93V28.96z" style="fill:#2C5967;"/>
			</g>
		</g>
		<g>
			<g>
				<path class="oci-oci-container-registry-st1" d="M15.44,30.44H6.56v-8.89h8.89V30.44z M8.04,28.96h5.93v-5.93H8.04V28.96z" style="fill:#2C5967;"/>
			</g>
		</g>
	</g>
</g>
      </svg>
      <text class="node-service-name" text-anchor="middle" x="92" y="89"><tspan x="92" dy="0">OCI Container Registry</tspan></text>
    </g>

  </g>
</svg>
